<svg xmlns="http://www.w3.org/2000/svg" viewBox="0 0 36 33" shape-rendering="crispEdges">
  <defs>
    <filter id="key-outline" x="-20%" y="-20%" width="140%" height="140%">
      <feMorphology in="SourceGraphic" operator="dilate" radius="1" result="dilated"/>
      <feFlood flood-color="#000000" result="black"/>
      <feComposite in="black" in2="dilated" operator="in" result="outline"/>
      <feComposite in="SourceGraphic" in2="outline" operator="over"/>
    </filter>
  </defs>
  <g fill="#0B4527">
    <rect x="13" y="2" width="6" height="1"/>
    <rect x="12" y="3" width="8" height="1"/>
    <rect x="11" y="4" width="10" height="1"/>
    <rect x="10" y="5" width="12" height="1"/>
    <rect x="9" y="6" width="14" height="8"/>
    <rect x="10" y="14" width="12" height="1"/>
    <rect x="11" y="15" width="10" height="1"/>
    <rect x="12" y="16" width="8" height="1"/>
    <rect x="13" y="17" width="6" height="1"/>
    <rect x="13" y="18" width="6" height="2"/>
    <rect x="12" y="20" width="8" height="1"/>
    <rect x="10" y="21" width="12" height="1"/>
    <rect x="8" y="22" width="16" height="1"/>
    <rect x="6" y="23" width="20" height="1"/>
    <rect x="4" y="24" width="24" height="1"/>
    <rect x="3" y="25" width="26" height="1"/>
    <rect x="2" y="26" width="28" height="1"/>
    <rect x="1" y="27" width="30" height="2"/>
    <rect x="0" y="29" width="32" height="3"/>
  </g>
  <g fill="#000000">
    <rect x="15" y="5" width="2" height="1"/>
    <rect x="14" y="6" width="4" height="2"/>
    <rect x="15" y="8" width="2" height="4"/>
    <rect x="14" y="12" width="4" height="1"/>
    <rect x="13" y="13" width="6" height="1"/>
  </g>
  <g fill="#E8B830" filter="url(#key-outline)">
    <rect x="18" y="8" width="12" height="3"/>
    <rect x="29" y="6" width="1" height="6"/>
    <rect x="34" y="6" width="1" height="6"/>
    <rect x="30" y="6" width="4" height="1"/>
    <rect x="30" y="11" width="4" height="1"/>
    <rect x="18" y="11" width="1" height="3"/>
    <rect x="20" y="11" width="1" height="3"/>
    <rect x="22" y="11" width="1" height="2"/>
  </g>
</svg>
